<?xml version="1.0" encoding="UTF-8" standalone="no"?><svg xmlns="http://www.w3.org/2000/svg" xmlns:xlink="http://www.w3.org/1999/xlink" contentStyleType="text/css" height="244px" preserveAspectRatio="none" style="width:812px;height:244px;background:#FFFFFF;" version="1.1" viewBox="0 0 812 244" width="812px" zoomAndPan="magnify"><defs/><g><g id="elem_c"><ellipse cx="395.8536" cy="101.1727" fill="#F1F1F1" rx="77.3536" ry="17.8707" style="stroke:#181818;stroke-width:0.5;"/><text fill="#000000" font-family="sans-serif" font-size="14" lengthAdjust="spacing" textLength="112" x="337.1333" y="104.8474">Calculer la paye</text></g><g id="elem_g"><ellipse cx="200.1379" cy="101.3296" fill="#F1F1F1" rx="83.1379" ry="19.0276" style="stroke:#181818;stroke-width:0.5;"/><text fill="#000000" font-family="sans-serif" font-size="14" lengthAdjust="spacing" textLength="126" x="136.5914" y="104.3614">Gérer un chantier</text></g><g id="elem_a"><ellipse cx="220.228" cy="218.8476" fill="#F1F1F1" rx="85.728" ry="19.5456" style="stroke:#181818;stroke-width:0.5;"/><text fill="#000000" font-family="sans-serif" font-size="14" lengthAdjust="spacing" textLength="132" x="154.228" y="221.6943">Gérer les artisants</text></g><g id="elem_participer"><ellipse cx="704.2481" cy="101.1516" fill="#F1F1F1" rx="102.2481" ry="22.8496" style="stroke:#181818;stroke-width:0.5;"/><text fill="#000000" font-family="sans-serif" font-size="14" lengthAdjust="spacing" textLength="169" x="619.7481" y="103.9983">participer à un chantier</text></g><!--MD5=[4206b647878100e6066f92523e03a5d6]
entity Entreprise--><g id="elem_Entreprise"><ellipse cx="44" cy="71.802" fill="#F1F1F1" rx="8" ry="8" style="stroke:#181818;stroke-width:0.5;"/><path d="M44,79.802 L44,106.802 M31,87.802 L57,87.802 M44,106.802 L31,121.802 M44,106.802 L57,121.802 " fill="none" style="stroke:#181818;stroke-width:0.5;"/><text fill="#000000" font-family="sans-serif" font-size="14" lengthAdjust="spacing" textLength="76" x="6" y="136.2971">Entreprise</text></g><!--MD5=[34de0e2868cddc1967ff25186031913f]
entity Artisant--><g id="elem_Artisant"><ellipse cx="538" cy="71.802" fill="#F1F1F1" rx="8" ry="8" style="stroke:#181818;stroke-width:0.5;"/><path d="M538,79.802 L538,106.802 M525,87.802 L551,87.802 M538,106.802 L525,121.802 M538,106.802 L551,121.802 " fill="none" style="stroke:#181818;stroke-width:0.5;"/><text fill="#000000" font-family="sans-serif" font-size="14" lengthAdjust="spacing" textLength="58" x="509" y="136.2971">Artisant</text></g><!--MD5=[a8ff9257ab4573c2754dbdb014fed1b7]
link c to a--><!--MD5=[545f4d4fb419a8ec5e42c2564d028392]
link Entreprise to c--><g id="link_Entreprise_c"><path d="M74.4332,63.036 C86.1718,51.18 100.6135,39.586 116.5,33.302 C185.518,6 212.003,13.373 283.5,33.302 C316.476,42.494 349.432,64.26 371.07,80.709 " fill="none" id="Entreprise-to-c" style="stroke:#181818;stroke-width:1.0;"/><polygon fill="#181818" points="375.243,83.923,370.5524,75.2628,371.2814,80.8725,365.6717,81.6014,375.243,83.923" style="stroke:#181818;stroke-width:1.0;"/></g><!--MD5=[00c8f149603a4ed71e70a7f6a4cdee33]
link Entreprise to g--><g id="link_Entreprise_g"><path d="M82.0859,101.302 C91.8917,101.302 101.6975,101.302 111.503,101.302 " fill="none" id="Entreprise-to-g" style="stroke:#181818;stroke-width:1.0;"/><polygon fill="#181818" points="116.631,101.302,107.631,97.302,111.631,101.302,107.631,105.302,116.631,101.302" style="stroke:#181818;stroke-width:1.0;"/></g><!--MD5=[7164c984a0067deca1ef070f0e721290]
link Entreprise to a--><g id="link_Entreprise_a"><path d="M82.1127,128.061 C87.7644,131.846 93.5269,135.686 99,139.302 C129.093,159.1835 163.627,181.5429 188.078,197.2981 " fill="none" id="Entreprise-to-a" style="stroke:#181818;stroke-width:1.0;"/><polygon fill="#181818" points="192.523,200.161,187.1221,191.9251,188.3193,197.4538,182.7906,198.651,192.523,200.161" style="stroke:#181818;stroke-width:1.0;"/></g><!--MD5=[6e23b4d2aa40ce2b15dcd0c6f72317f5]
link Artisant to participer--><g id="link_Artisant_participer"><path d="M567.18,101.302 C577.041,101.302 586.902,101.302 596.763,101.302 " fill="none" id="Artisant-to-participer" style="stroke:#181818;stroke-width:1.0;"/><polygon fill="#181818" points="601.919,101.302,592.919,97.302,596.919,101.302,592.919,105.302,601.919,101.302" style="stroke:#181818;stroke-width:1.0;"/></g><!--MD5=[86d42c7cdf95a49f55e448d966e103bb]
@startuml
usecase c as "Calculer la paye"
usecase g as "Gérer un chantier"
usecase a as "Gérer les artisants"
usecase participer as "participer à un chantier"

actor Entreprise 
actor Artisant 
 
'Pour aligner les 2 acteurs :....0000
c -[hidden]-> a

Entreprise -> c
Entreprise -> g
Entreprise -> a

Artisant -> participer
@enduml

@startuml
usecase c as "Calculer la paye"
usecase g as "Gérer un chantier"
usecase a as "Gérer les artisants"
usecase participer as "participer à un chantier"

actor Entreprise 
actor Artisant 
 
c -[hidden]-> a

Entreprise -> c
Entreprise -> g
Entreprise -> a

Artisant -> participer
@enduml

PlantUML version 1.2022.2(Sat Mar 05 16:30:19 UTC 2022)
(GPL source distribution)
Java Runtime: Java(TM) SE Runtime Environment
JVM: Java HotSpot(TM) 64-Bit Server VM
Default Encoding: UTF-8
Language: en
Country: US
--></g></svg>